<mxfile host="app.diagrams.net" modified="2022-04-08T09:57:20.834Z" agent="5.0 (X11; Linux x86_64) AppleWebKit/537.36 (KHTML, like Gecko) Chrome/99.0.4844.84 Safari/537.36 OPR/85.0.4341.28" etag="p1TFxdOFz9BZQjJE6kPq" version="17.4.1" type="github">
  <diagram id="1oCC9w_BZzvgBApXP2oO" name="ページ1">
    <mxGraphModel dx="691" dy="390" grid="1" gridSize="10" guides="1" tooltips="1" connect="1" arrows="1" fold="1" page="1" pageScale="1" pageWidth="827" pageHeight="1169" math="0" shadow="0">
      <root>
        <mxCell id="0" />
        <mxCell id="1" parent="0" />
        <mxCell id="MJJu84xb4zAJNQ6P8vz2-82" value="" style="rounded=0;whiteSpace=wrap;html=1;fontSize=12;strokeColor=#B3B3B3;" vertex="1" parent="1">
          <mxGeometry x="80" y="62" width="600" height="628" as="geometry" />
        </mxCell>
        <mxCell id="MJJu84xb4zAJNQ6P8vz2-66" value="" style="endArrow=none;html=1;rounded=0;strokeColor=#B3B3B3;" edge="1" parent="1">
          <mxGeometry width="50" height="50" relative="1" as="geometry">
            <mxPoint x="641" y="600" as="sourcePoint" />
            <mxPoint x="441" y="440" as="targetPoint" />
          </mxGeometry>
        </mxCell>
        <mxCell id="MJJu84xb4zAJNQ6P8vz2-1" value="" style="html=1;verticalLabelPosition=bottom;align=center;labelBackgroundColor=#ffffff;verticalAlign=top;strokeWidth=2;strokeColor=#0080F0;shadow=0;dashed=0;shape=mxgraph.ios7.icons.document;" vertex="1" parent="1">
          <mxGeometry x="120" y="280" width="40" height="50" as="geometry" />
        </mxCell>
        <mxCell id="MJJu84xb4zAJNQ6P8vz2-2" value="" style="html=1;verticalLabelPosition=bottom;align=center;labelBackgroundColor=#ffffff;verticalAlign=top;strokeWidth=2;strokeColor=#0080F0;shadow=0;dashed=0;shape=mxgraph.ios7.icons.document;" vertex="1" parent="1">
          <mxGeometry x="160" y="280" width="40" height="50" as="geometry" />
        </mxCell>
        <mxCell id="MJJu84xb4zAJNQ6P8vz2-3" value="" style="html=1;verticalLabelPosition=bottom;align=center;labelBackgroundColor=#ffffff;verticalAlign=top;strokeWidth=2;strokeColor=#0080F0;shadow=0;dashed=0;shape=mxgraph.ios7.icons.document;" vertex="1" parent="1">
          <mxGeometry x="200" y="280" width="40" height="50" as="geometry" />
        </mxCell>
        <mxCell id="MJJu84xb4zAJNQ6P8vz2-4" value="" style="html=1;verticalLabelPosition=bottom;align=center;labelBackgroundColor=#ffffff;verticalAlign=top;strokeWidth=2;strokeColor=#0080F0;shadow=0;dashed=0;shape=mxgraph.ios7.icons.document;" vertex="1" parent="1">
          <mxGeometry x="240" y="280" width="40" height="50" as="geometry" />
        </mxCell>
        <mxCell id="MJJu84xb4zAJNQ6P8vz2-5" value="" style="html=1;verticalLabelPosition=bottom;align=center;labelBackgroundColor=#ffffff;verticalAlign=top;strokeWidth=2;strokeColor=#0080F0;shadow=0;dashed=0;shape=mxgraph.ios7.icons.document;" vertex="1" parent="1">
          <mxGeometry x="280" y="280" width="40" height="50" as="geometry" />
        </mxCell>
        <mxCell id="MJJu84xb4zAJNQ6P8vz2-6" value="" style="rounded=0;whiteSpace=wrap;html=1;" vertex="1" parent="1">
          <mxGeometry x="120" y="240" width="150" height="40" as="geometry" />
        </mxCell>
        <mxCell id="MJJu84xb4zAJNQ6P8vz2-21" value="10cm" style="text;html=1;align=center;verticalAlign=middle;resizable=0;points=[];autosize=1;strokeColor=none;fillColor=none;" vertex="1" parent="1">
          <mxGeometry x="174" y="250" width="50" height="20" as="geometry" />
        </mxCell>
        <mxCell id="MJJu84xb4zAJNQ6P8vz2-22" value="" style="rounded=0;whiteSpace=wrap;html=1;strokeColor=#B3B3B3;" vertex="1" parent="1">
          <mxGeometry x="441" y="279" width="200" height="50" as="geometry" />
        </mxCell>
        <mxCell id="MJJu84xb4zAJNQ6P8vz2-23" value="" style="html=1;verticalLabelPosition=bottom;align=center;labelBackgroundColor=#ffffff;verticalAlign=top;strokeWidth=2;strokeColor=#0080F0;shadow=0;dashed=0;shape=mxgraph.ios7.icons.document;" vertex="1" parent="1">
          <mxGeometry x="441" y="279" width="40" height="50" as="geometry" />
        </mxCell>
        <mxCell id="MJJu84xb4zAJNQ6P8vz2-24" value="" style="html=1;verticalLabelPosition=bottom;align=center;labelBackgroundColor=#ffffff;verticalAlign=top;strokeWidth=2;strokeColor=#0080F0;shadow=0;dashed=0;shape=mxgraph.ios7.icons.document;" vertex="1" parent="1">
          <mxGeometry x="481" y="279" width="40" height="50" as="geometry" />
        </mxCell>
        <mxCell id="MJJu84xb4zAJNQ6P8vz2-25" value="" style="html=1;verticalLabelPosition=bottom;align=center;labelBackgroundColor=#ffffff;verticalAlign=top;strokeWidth=2;strokeColor=#0080F0;shadow=0;dashed=0;shape=mxgraph.ios7.icons.document;" vertex="1" parent="1">
          <mxGeometry x="521" y="279" width="40" height="50" as="geometry" />
        </mxCell>
        <mxCell id="MJJu84xb4zAJNQ6P8vz2-26" value="" style="html=1;verticalLabelPosition=bottom;align=center;labelBackgroundColor=#ffffff;verticalAlign=top;strokeWidth=2;strokeColor=#0080F0;shadow=0;dashed=0;shape=mxgraph.ios7.icons.document;" vertex="1" parent="1">
          <mxGeometry x="561" y="279" width="40" height="50" as="geometry" />
        </mxCell>
        <mxCell id="MJJu84xb4zAJNQ6P8vz2-27" value="" style="html=1;verticalLabelPosition=bottom;align=center;labelBackgroundColor=#ffffff;verticalAlign=top;strokeWidth=2;strokeColor=#0080F0;shadow=0;dashed=0;shape=mxgraph.ios7.icons.document;" vertex="1" parent="1">
          <mxGeometry x="601" y="279" width="40" height="50" as="geometry" />
        </mxCell>
        <mxCell id="MJJu84xb4zAJNQ6P8vz2-29" value="" style="endArrow=none;html=1;rounded=0;exitX=-0.025;exitY=1.02;exitDx=0;exitDy=0;exitPerimeter=0;strokeColor=#B3B3B3;" edge="1" parent="1" source="MJJu84xb4zAJNQ6P8vz2-23">
          <mxGeometry width="50" height="50" relative="1" as="geometry">
            <mxPoint x="501" y="349" as="sourcePoint" />
            <mxPoint x="441" y="119" as="targetPoint" />
          </mxGeometry>
        </mxCell>
        <mxCell id="MJJu84xb4zAJNQ6P8vz2-30" value="" style="endArrow=none;html=1;rounded=0;fillColor=#eeeeee;strokeColor=#B3B3B3;" edge="1" parent="1">
          <mxGeometry width="50" height="50" relative="1" as="geometry">
            <mxPoint x="641" y="279" as="sourcePoint" />
            <mxPoint x="441" y="119" as="targetPoint" />
          </mxGeometry>
        </mxCell>
        <mxCell id="MJJu84xb4zAJNQ6P8vz2-40" value="" style="rounded=0;whiteSpace=wrap;html=1;strokeColor=#B3B3B3;" vertex="1" parent="1">
          <mxGeometry x="121" y="601" width="200" height="50" as="geometry" />
        </mxCell>
        <mxCell id="MJJu84xb4zAJNQ6P8vz2-41" value="" style="html=1;verticalLabelPosition=bottom;align=center;labelBackgroundColor=#ffffff;verticalAlign=top;strokeWidth=2;strokeColor=#0080F0;shadow=0;dashed=0;shape=mxgraph.ios7.icons.document;" vertex="1" parent="1">
          <mxGeometry x="121" y="601" width="40" height="50" as="geometry" />
        </mxCell>
        <mxCell id="MJJu84xb4zAJNQ6P8vz2-42" value="" style="html=1;verticalLabelPosition=bottom;align=center;labelBackgroundColor=#ffffff;verticalAlign=top;strokeWidth=2;strokeColor=#0080F0;shadow=0;dashed=0;shape=mxgraph.ios7.icons.document;" vertex="1" parent="1">
          <mxGeometry x="161" y="601" width="40" height="50" as="geometry" />
        </mxCell>
        <mxCell id="MJJu84xb4zAJNQ6P8vz2-43" value="" style="html=1;verticalLabelPosition=bottom;align=center;labelBackgroundColor=#ffffff;verticalAlign=top;strokeWidth=2;strokeColor=#0080F0;shadow=0;dashed=0;shape=mxgraph.ios7.icons.document;" vertex="1" parent="1">
          <mxGeometry x="201" y="601" width="40" height="50" as="geometry" />
        </mxCell>
        <mxCell id="MJJu84xb4zAJNQ6P8vz2-44" value="" style="html=1;verticalLabelPosition=bottom;align=center;labelBackgroundColor=#ffffff;verticalAlign=top;strokeWidth=2;strokeColor=#0080F0;shadow=0;dashed=0;shape=mxgraph.ios7.icons.document;" vertex="1" parent="1">
          <mxGeometry x="241" y="601" width="40" height="50" as="geometry" />
        </mxCell>
        <mxCell id="MJJu84xb4zAJNQ6P8vz2-45" value="" style="html=1;verticalLabelPosition=bottom;align=center;labelBackgroundColor=#ffffff;verticalAlign=top;strokeWidth=2;strokeColor=#0080F0;shadow=0;dashed=0;shape=mxgraph.ios7.icons.document;" vertex="1" parent="1">
          <mxGeometry x="281" y="601" width="40" height="50" as="geometry" />
        </mxCell>
        <mxCell id="MJJu84xb4zAJNQ6P8vz2-47" value="" style="endArrow=none;html=1;rounded=0;exitX=-0.025;exitY=1.02;exitDx=0;exitDy=0;exitPerimeter=0;strokeColor=#B3B3B3;" edge="1" parent="1" source="MJJu84xb4zAJNQ6P8vz2-41">
          <mxGeometry width="50" height="50" relative="1" as="geometry">
            <mxPoint x="181" y="671" as="sourcePoint" />
            <mxPoint x="121" y="441" as="targetPoint" />
          </mxGeometry>
        </mxCell>
        <mxCell id="MJJu84xb4zAJNQ6P8vz2-48" value="" style="endArrow=none;html=1;rounded=0;strokeColor=#B3B3B3;" edge="1" parent="1">
          <mxGeometry width="50" height="50" relative="1" as="geometry">
            <mxPoint x="321" y="601" as="sourcePoint" />
            <mxPoint x="121" y="441" as="targetPoint" />
          </mxGeometry>
        </mxCell>
        <mxCell id="MJJu84xb4zAJNQ6P8vz2-58" value="" style="rounded=0;whiteSpace=wrap;html=1;strokeColor=#B3B3B3;" vertex="1" parent="1">
          <mxGeometry x="441" y="600" width="200" height="50" as="geometry" />
        </mxCell>
        <mxCell id="MJJu84xb4zAJNQ6P8vz2-59" value="" style="html=1;verticalLabelPosition=bottom;align=center;labelBackgroundColor=#ffffff;verticalAlign=top;strokeWidth=2;strokeColor=#0080F0;shadow=0;dashed=0;shape=mxgraph.ios7.icons.document;" vertex="1" parent="1">
          <mxGeometry x="441" y="600" width="40" height="50" as="geometry" />
        </mxCell>
        <mxCell id="MJJu84xb4zAJNQ6P8vz2-60" value="" style="html=1;verticalLabelPosition=bottom;align=center;labelBackgroundColor=#ffffff;verticalAlign=top;strokeWidth=2;strokeColor=#0080F0;shadow=0;dashed=0;shape=mxgraph.ios7.icons.document;" vertex="1" parent="1">
          <mxGeometry x="481" y="600" width="40" height="50" as="geometry" />
        </mxCell>
        <mxCell id="MJJu84xb4zAJNQ6P8vz2-61" value="" style="html=1;verticalLabelPosition=bottom;align=center;labelBackgroundColor=#ffffff;verticalAlign=top;strokeWidth=2;strokeColor=#0080F0;shadow=0;dashed=0;shape=mxgraph.ios7.icons.document;" vertex="1" parent="1">
          <mxGeometry x="521" y="600" width="40" height="50" as="geometry" />
        </mxCell>
        <mxCell id="MJJu84xb4zAJNQ6P8vz2-62" value="" style="html=1;verticalLabelPosition=bottom;align=center;labelBackgroundColor=#ffffff;verticalAlign=top;strokeWidth=2;strokeColor=#0080F0;shadow=0;dashed=0;shape=mxgraph.ios7.icons.document;" vertex="1" parent="1">
          <mxGeometry x="561" y="600" width="40" height="50" as="geometry" />
        </mxCell>
        <mxCell id="MJJu84xb4zAJNQ6P8vz2-63" value="" style="html=1;verticalLabelPosition=bottom;align=center;labelBackgroundColor=#ffffff;verticalAlign=top;strokeWidth=2;strokeColor=#0080F0;shadow=0;dashed=0;shape=mxgraph.ios7.icons.document;" vertex="1" parent="1">
          <mxGeometry x="601" y="600" width="40" height="50" as="geometry" />
        </mxCell>
        <mxCell id="MJJu84xb4zAJNQ6P8vz2-64" value="" style="rounded=0;whiteSpace=wrap;html=1;" vertex="1" parent="1">
          <mxGeometry x="441" y="560" width="150" height="40" as="geometry" />
        </mxCell>
        <mxCell id="MJJu84xb4zAJNQ6P8vz2-65" value="" style="endArrow=none;html=1;rounded=0;exitX=-0.025;exitY=1.02;exitDx=0;exitDy=0;exitPerimeter=0;strokeColor=#B3B3B3;" edge="1" parent="1" source="MJJu84xb4zAJNQ6P8vz2-59">
          <mxGeometry width="50" height="50" relative="1" as="geometry">
            <mxPoint x="501" y="670" as="sourcePoint" />
            <mxPoint x="441" y="440" as="targetPoint" />
          </mxGeometry>
        </mxCell>
        <mxCell id="MJJu84xb4zAJNQ6P8vz2-67" value="" style="endArrow=none;dashed=1;html=1;dashPattern=1 3;strokeWidth=2;rounded=0;strokeColor=#B3B3B3;" edge="1" parent="1">
          <mxGeometry width="50" height="50" relative="1" as="geometry">
            <mxPoint x="481" y="600" as="sourcePoint" />
            <mxPoint x="441" y="440" as="targetPoint" />
          </mxGeometry>
        </mxCell>
        <mxCell id="MJJu84xb4zAJNQ6P8vz2-68" value="" style="endArrow=none;dashed=1;html=1;dashPattern=1 3;strokeWidth=2;rounded=0;strokeColor=#B3B3B3;" edge="1" parent="1">
          <mxGeometry width="50" height="50" relative="1" as="geometry">
            <mxPoint x="521" y="600" as="sourcePoint" />
            <mxPoint x="441" y="440" as="targetPoint" />
          </mxGeometry>
        </mxCell>
        <mxCell id="MJJu84xb4zAJNQ6P8vz2-69" value="" style="endArrow=none;dashed=1;html=1;dashPattern=1 3;strokeWidth=2;rounded=0;exitX=0;exitY=-0.007;exitDx=0;exitDy=0;exitPerimeter=0;strokeColor=#B3B3B3;" edge="1" parent="1" source="MJJu84xb4zAJNQ6P8vz2-62">
          <mxGeometry width="50" height="50" relative="1" as="geometry">
            <mxPoint x="491" y="570" as="sourcePoint" />
            <mxPoint x="441" y="440" as="targetPoint" />
          </mxGeometry>
        </mxCell>
        <mxCell id="MJJu84xb4zAJNQ6P8vz2-70" value="" style="endArrow=none;dashed=1;html=1;dashPattern=1 3;strokeWidth=2;rounded=0;exitX=0.802;exitY=0.007;exitDx=0;exitDy=0;exitPerimeter=0;strokeColor=#B3B3B3;" edge="1" parent="1" source="MJJu84xb4zAJNQ6P8vz2-58">
          <mxGeometry width="50" height="50" relative="1" as="geometry">
            <mxPoint x="491" y="570" as="sourcePoint" />
            <mxPoint x="441" y="440" as="targetPoint" />
          </mxGeometry>
        </mxCell>
        <mxCell id="MJJu84xb4zAJNQ6P8vz2-71" value="" style="ellipse;whiteSpace=wrap;html=1;aspect=fixed;fillColor=#e51400;fontColor=#ffffff;strokeColor=#B20000;" vertex="1" parent="1">
          <mxGeometry x="466" y="555" width="10" height="10" as="geometry" />
        </mxCell>
        <mxCell id="MJJu84xb4zAJNQ6P8vz2-72" value="" style="ellipse;whiteSpace=wrap;html=1;aspect=fixed;fillColor=#e51400;fontColor=#ffffff;strokeColor=#B20000;" vertex="1" parent="1">
          <mxGeometry x="495" y="555" width="10" height="10" as="geometry" />
        </mxCell>
        <mxCell id="MJJu84xb4zAJNQ6P8vz2-73" value="" style="ellipse;whiteSpace=wrap;html=1;aspect=fixed;fillColor=#e51400;fontColor=#ffffff;strokeColor=#B20000;" vertex="1" parent="1">
          <mxGeometry x="526" y="555" width="10" height="10" as="geometry" />
        </mxCell>
        <mxCell id="MJJu84xb4zAJNQ6P8vz2-74" value="" style="ellipse;whiteSpace=wrap;html=1;aspect=fixed;fillColor=#e51400;fontColor=#ffffff;strokeColor=#B20000;" vertex="1" parent="1">
          <mxGeometry x="556" y="555" width="10" height="10" as="geometry" />
        </mxCell>
        <mxCell id="MJJu84xb4zAJNQ6P8vz2-75" value="10cm" style="text;html=1;align=center;verticalAlign=middle;resizable=0;points=[];autosize=1;strokeColor=none;fillColor=none;" vertex="1" parent="1">
          <mxGeometry x="495" y="570" width="50" height="20" as="geometry" />
        </mxCell>
        <mxCell id="MJJu84xb4zAJNQ6P8vz2-76" value="①" style="text;html=1;align=center;verticalAlign=middle;resizable=0;points=[];autosize=1;strokeColor=none;fillColor=none;fontSize=20;" vertex="1" parent="1">
          <mxGeometry x="120" y="80" width="40" height="30" as="geometry" />
        </mxCell>
        <mxCell id="MJJu84xb4zAJNQ6P8vz2-77" value="②" style="text;html=1;align=center;verticalAlign=middle;resizable=0;points=[];autosize=1;strokeColor=none;fillColor=none;fontSize=20;" vertex="1" parent="1">
          <mxGeometry x="441" y="80" width="40" height="30" as="geometry" />
        </mxCell>
        <mxCell id="MJJu84xb4zAJNQ6P8vz2-78" value="③" style="text;html=1;align=center;verticalAlign=middle;resizable=0;points=[];autosize=1;strokeColor=none;fillColor=none;fontSize=20;" vertex="1" parent="1">
          <mxGeometry x="121" y="400" width="40" height="30" as="geometry" />
        </mxCell>
        <mxCell id="MJJu84xb4zAJNQ6P8vz2-79" value="④" style="text;html=1;align=center;verticalAlign=middle;resizable=0;points=[];autosize=1;strokeColor=none;fillColor=none;fontSize=20;" vertex="1" parent="1">
          <mxGeometry x="441" y="400" width="40" height="30" as="geometry" />
        </mxCell>
        <mxCell id="MJJu84xb4zAJNQ6P8vz2-28" value="" style="rounded=0;whiteSpace=wrap;html=1;" vertex="1" parent="1">
          <mxGeometry x="441" y="239" width="150" height="40" as="geometry" />
        </mxCell>
        <mxCell id="MJJu84xb4zAJNQ6P8vz2-46" value="" style="rounded=0;whiteSpace=wrap;html=1;" vertex="1" parent="1">
          <mxGeometry x="121" y="561" width="150" height="40" as="geometry" />
        </mxCell>
        <mxCell id="MJJu84xb4zAJNQ6P8vz2-57" value="10cm" style="text;html=1;align=center;verticalAlign=middle;resizable=0;points=[];autosize=1;strokeColor=none;fillColor=none;" vertex="1" parent="1">
          <mxGeometry x="175" y="571" width="50" height="20" as="geometry" />
        </mxCell>
        <mxCell id="MJJu84xb4zAJNQ6P8vz2-49" value="" style="endArrow=none;dashed=1;html=1;dashPattern=1 3;strokeWidth=2;rounded=0;strokeColor=#B3B3B3;" edge="1" parent="1">
          <mxGeometry width="50" height="50" relative="1" as="geometry">
            <mxPoint x="161" y="601" as="sourcePoint" />
            <mxPoint x="121" y="441" as="targetPoint" />
          </mxGeometry>
        </mxCell>
        <mxCell id="MJJu84xb4zAJNQ6P8vz2-50" value="" style="endArrow=none;dashed=1;html=1;dashPattern=1 3;strokeWidth=2;rounded=0;strokeColor=#B3B3B3;" edge="1" parent="1">
          <mxGeometry width="50" height="50" relative="1" as="geometry">
            <mxPoint x="201" y="601" as="sourcePoint" />
            <mxPoint x="121" y="441" as="targetPoint" />
          </mxGeometry>
        </mxCell>
        <mxCell id="MJJu84xb4zAJNQ6P8vz2-51" value="" style="endArrow=none;dashed=1;html=1;dashPattern=1 3;strokeWidth=2;rounded=0;exitX=0;exitY=-0.007;exitDx=0;exitDy=0;exitPerimeter=0;strokeColor=#B3B3B3;" edge="1" parent="1" source="MJJu84xb4zAJNQ6P8vz2-44">
          <mxGeometry width="50" height="50" relative="1" as="geometry">
            <mxPoint x="171" y="571" as="sourcePoint" />
            <mxPoint x="121" y="441" as="targetPoint" />
          </mxGeometry>
        </mxCell>
        <mxCell id="MJJu84xb4zAJNQ6P8vz2-52" value="" style="endArrow=none;dashed=1;html=1;dashPattern=1 3;strokeWidth=2;rounded=0;exitX=0.802;exitY=0.007;exitDx=0;exitDy=0;exitPerimeter=0;strokeColor=#B3B3B3;" edge="1" parent="1" source="MJJu84xb4zAJNQ6P8vz2-40">
          <mxGeometry width="50" height="50" relative="1" as="geometry">
            <mxPoint x="171" y="571" as="sourcePoint" />
            <mxPoint x="121" y="441" as="targetPoint" />
          </mxGeometry>
        </mxCell>
        <mxCell id="MJJu84xb4zAJNQ6P8vz2-80" value="C" style="text;html=1;align=center;verticalAlign=middle;resizable=0;points=[];autosize=1;strokeColor=none;fillColor=none;fontSize=12;" vertex="1" parent="1">
          <mxGeometry x="428" y="102" width="20" height="20" as="geometry" />
        </mxCell>
        <mxCell id="MJJu84xb4zAJNQ6P8vz2-81" value="C" style="text;html=1;align=center;verticalAlign=middle;resizable=0;points=[];autosize=1;strokeColor=none;fillColor=none;fontSize=12;" vertex="1" parent="1">
          <mxGeometry x="109" y="423" width="20" height="20" as="geometry" />
        </mxCell>
        <mxCell id="MJJu84xb4zAJNQ6P8vz2-39" value="10cm" style="text;html=1;align=center;verticalAlign=middle;resizable=0;points=[];autosize=1;strokeColor=none;fillColor=none;" vertex="1" parent="1">
          <mxGeometry x="495" y="249" width="50" height="20" as="geometry" />
        </mxCell>
      </root>
    </mxGraphModel>
  </diagram>
</mxfile>
